<svg width="100" height="100" viewBox="0 0 100 100" fill="none" xmlns="http://www.w3.org/2000/svg">
<circle cx="50" cy="50" r="50" fill="#0B0049"/>
<path d="M95 50C95 74.8528 74.8528 95 50 95C25.1472 95 5 74.8528 5 50C5 25.1472 25.1472 5 50 5C74.8528 5 95 25.1472 95 50Z" fill="#00A4FD"/>
<circle cx="50" cy="50" r="40" fill="#00F7FF"/>
<circle cx="50" cy="50" r="35" fill="#D9D9D9"/>
<path d="M47 74H32.6364V27.4545H47.6364C52.1515 27.4545 56.0152 28.3864 59.2273 30.25C62.4394 32.0985 64.9015 34.7576 66.6136 38.2273C68.3258 41.6818 69.1818 45.8182 69.1818 50.6364C69.1818 55.4848 68.3182 59.6591 66.5909 63.1591C64.8636 66.6439 62.3485 69.3258 59.0455 71.2045C55.7424 73.0682 51.7273 74 47 74ZM38.2727 69H46.6364C50.4848 69 53.6742 68.2576 56.2045 66.7727C58.7348 65.2879 60.6212 63.1742 61.8636 60.4318C63.1061 57.6894 63.7273 54.4242 63.7273 50.6364C63.7273 46.8788 63.1136 43.6439 61.8864 40.9318C60.6591 38.2045 58.8258 36.1136 56.3864 34.6591C53.947 33.1894 50.9091 32.4545 47.2727 32.4545H38.2727V69Z" fill="#005A1E"/>
<path d="M48.468 51.4246C48.468 51.7606 48.312 51.9886 48 52.1086L30.972 57.9766L27.984 59.0206L31.332 59.4166L47.388 61.3966C47.58 61.4206 47.736 61.5046 47.856 61.6486C47.952 61.7686 48 61.9246 48 62.1166V63.8086C48 64.0006 47.94 64.1566 47.82 64.2766C47.676 64.3726 47.52 64.4086 47.352 64.3846L23.376 61.2526C23.256 61.2286 23.16 61.1806 23.088 61.1086C23.016 61.0126 22.98 60.9166 22.98 60.8206V58.3006C22.98 58.1566 23.028 58.0126 23.124 57.8686C23.196 57.7246 23.304 57.6406 23.448 57.6166L42.204 51.1366L44.004 50.5246L42.096 49.8766L23.304 43.3606C23.088 43.2886 22.98 43.1446 22.98 42.9286V40.4446C22.98 40.2526 23.04 40.0966 23.16 39.9766C23.256 39.8326 23.4 39.7486 23.592 39.7246L47.352 36.6286C47.52 36.6046 47.676 36.6526 47.82 36.7726C47.94 36.8686 48 37.0126 48 37.2046V38.9326C48 39.1006 47.952 39.2566 47.856 39.4006C47.736 39.5206 47.58 39.6046 47.388 39.6526L31.188 41.6326L28.056 42.0286L31.512 43.2166L48 48.9406C48.312 49.0606 48.468 49.2886 48.468 49.6246V51.4246Z" fill="#00B3EF"/>
</svg>
