<svg width="386" height="131" viewBox="0 0 386 131" fill="none" xmlns="http://www.w3.org/2000/svg">
<rect width="384" height="131" rx="28" fill="#D9D9D9"/>
<path d="M121.87 53.8H135.334V56.788H125.146V64.312H133.21V67.336H125.146V76.012H135.622V79H121.87V53.8ZM139.278 53.8H145.758C148.398 53.8 150.45 54.46 151.914 55.78C153.402 57.076 154.146 58.984 154.146 61.504C154.146 62.944 153.798 64.252 153.102 65.428C152.43 66.58 151.482 67.492 150.258 68.164L155.298 79H151.41L146.91 69.136C146.526 69.184 146.13 69.208 145.722 69.208H142.554V79H139.278V53.8ZM145.47 66.184C147.294 66.184 148.626 65.788 149.466 64.996C150.306 64.204 150.726 63.04 150.726 61.504C150.726 59.944 150.306 58.768 149.466 57.976C148.626 57.184 147.294 56.788 145.47 56.788H142.554V66.184H145.47ZM158.755 53.8H165.235C167.875 53.8 169.927 54.46 171.391 55.78C172.879 57.076 173.623 58.984 173.623 61.504C173.623 62.944 173.275 64.252 172.579 65.428C171.907 66.58 170.959 67.492 169.735 68.164L174.775 79H170.887L166.387 69.136C166.003 69.184 165.607 69.208 165.199 69.208H162.031V79H158.755V53.8ZM164.947 66.184C166.771 66.184 168.103 65.788 168.943 64.996C169.783 64.204 170.203 63.04 170.203 61.504C170.203 59.944 169.783 58.768 168.943 57.976C168.103 57.184 166.771 56.788 164.947 56.788H162.031V66.184H164.947ZM187.376 79.504C185.312 79.504 183.464 78.964 181.832 77.884C180.224 76.804 178.964 75.28 178.052 73.312C177.14 71.32 176.684 69.016 176.684 66.4C176.684 63.784 177.14 61.492 178.052 59.524C178.964 57.532 180.224 55.996 181.832 54.916C183.464 53.836 185.312 53.296 187.376 53.296C189.44 53.296 191.276 53.836 192.884 54.916C194.492 55.996 195.752 57.532 196.664 59.524C197.576 61.492 198.032 63.784 198.032 66.4C198.032 69.016 197.576 71.32 196.664 73.312C195.752 75.28 194.492 76.804 192.884 77.884C191.276 78.964 189.44 79.504 187.376 79.504ZM187.376 76.228C189.68 76.228 191.444 75.316 192.668 73.492C193.916 71.644 194.54 69.28 194.54 66.4C194.54 63.52 193.916 61.168 192.668 59.344C191.444 57.496 189.68 56.572 187.376 56.572C185.072 56.572 183.296 57.496 182.048 59.344C180.8 61.168 180.176 63.52 180.176 66.4C180.176 69.28 180.8 71.644 182.048 73.492C183.296 75.316 185.072 76.228 187.376 76.228ZM201.751 53.8H208.231C210.871 53.8 212.923 54.46 214.387 55.78C215.875 57.076 216.619 58.984 216.619 61.504C216.619 62.944 216.271 64.252 215.575 65.428C214.903 66.58 213.955 67.492 212.731 68.164L217.771 79H213.883L209.383 69.136C208.999 69.184 208.603 69.208 208.195 69.208H205.027V79H201.751V53.8ZM207.943 66.184C209.767 66.184 211.099 65.788 211.939 64.996C212.779 64.204 213.199 63.04 213.199 61.504C213.199 59.944 212.779 58.768 211.939 57.976C211.099 57.184 209.767 56.788 207.943 56.788H205.027V66.184H207.943ZM227.972 53.8H236.036C238.124 53.8 239.972 54.304 241.58 55.312C243.212 56.32 244.484 57.772 245.396 59.668C246.308 61.564 246.764 63.808 246.764 66.4C246.764 68.992 246.308 71.236 245.396 73.132C244.484 75.028 243.212 76.48 241.58 77.488C239.972 78.496 238.124 79 236.036 79H227.972V53.8ZM235.424 76.012C237.944 76.012 239.852 75.172 241.148 73.492C242.468 71.812 243.128 69.448 243.128 66.4C243.128 63.352 242.468 60.988 241.148 59.308C239.852 57.628 237.944 56.788 235.424 56.788H231.248V76.012H235.424ZM250.261 53.8H263.725V56.788H253.537V64.312H261.601V67.336H253.537V76.012H264.013V79H250.261V53.8ZM271.953 56.788H265.689V53.8H281.529V56.788H275.265V79H271.953V56.788ZM284.538 53.8H298.002V56.788H287.814V64.312H295.878V67.336H287.814V76.012H298.29V79H284.538V53.8ZM311.496 79.504C309.168 79.504 307.14 78.976 305.412 77.92C303.684 76.84 302.34 75.316 301.38 73.348C300.444 71.356 299.976 69.04 299.976 66.4C299.976 63.784 300.456 61.492 301.416 59.524C302.4 57.532 303.756 55.996 305.484 54.916C307.212 53.836 309.168 53.296 311.352 53.296C313.272 53.296 315.096 53.656 316.824 54.376L316.464 57.436C314.928 56.668 313.44 56.284 312 56.284C310.224 56.284 308.7 56.728 307.428 57.616C306.18 58.504 305.232 59.716 304.584 61.252C303.936 62.788 303.612 64.504 303.612 66.4C303.612 68.296 303.936 70.012 304.584 71.548C305.232 73.084 306.18 74.296 307.428 75.184C308.7 76.072 310.236 76.516 312.036 76.516C313.596 76.516 315.072 76.156 316.464 75.436L316.824 78.496C315.288 79.168 313.512 79.504 311.496 79.504ZM324.687 56.788H318.423V53.8H334.263V56.788H327.999V79H324.687V56.788ZM346.282 79.504C344.218 79.504 342.37 78.964 340.738 77.884C339.13 76.804 337.87 75.28 336.958 73.312C336.046 71.32 335.59 69.016 335.59 66.4C335.59 63.784 336.046 61.492 336.958 59.524C337.87 57.532 339.13 55.996 340.738 54.916C342.37 53.836 344.218 53.296 346.282 53.296C348.346 53.296 350.182 53.836 351.79 54.916C353.398 55.996 354.658 57.532 355.57 59.524C356.482 61.492 356.938 63.784 356.938 66.4C356.938 69.016 356.482 71.32 355.57 73.312C354.658 75.28 353.398 76.804 351.79 77.884C350.182 78.964 348.346 79.504 346.282 79.504ZM346.282 76.228C348.586 76.228 350.35 75.316 351.574 73.492C352.822 71.644 353.446 69.28 353.446 66.4C353.446 63.52 352.822 61.168 351.574 59.344C350.35 57.496 348.586 56.572 346.282 56.572C343.978 56.572 342.202 57.496 340.954 59.344C339.706 61.168 339.082 63.52 339.082 66.4C339.082 69.28 339.706 71.644 340.954 73.492C342.202 75.316 343.978 76.228 346.282 76.228ZM360.657 53.8H367.137C369.777 53.8 371.829 54.46 373.293 55.78C374.781 57.076 375.525 58.984 375.525 61.504C375.525 62.944 375.177 64.252 374.481 65.428C373.809 66.58 372.861 67.492 371.637 68.164L376.677 79H372.789L368.289 69.136C367.905 69.184 367.509 69.208 367.101 69.208H363.933V79H360.657V53.8ZM366.849 66.184C368.673 66.184 370.005 65.788 370.845 64.996C371.685 64.204 372.105 63.04 372.105 61.504C372.105 59.944 371.685 58.768 370.845 57.976C370.005 57.184 368.673 56.788 366.849 56.788H363.933V66.184H366.849Z" fill="#1E1E1E"/>
<circle cx="66" cy="65" r="50" fill="#0B0049"/>
<path d="M111 65C111 89.8528 90.8528 110 66 110C41.1472 110 21 89.8528 21 65C21 40.1472 41.1472 20 66 20C90.8528 20 111 40.1472 111 65Z" fill="#00A4FD"/>
<circle cx="66" cy="65" r="40" fill="#00F7FF"/>
<circle cx="66" cy="65" r="35" fill="#D9D9D9"/>
<path d="M63 89H48.6364V42.4545H63.6364C68.1515 42.4545 72.0152 43.3864 75.2273 45.25C78.4394 47.0985 80.9015 49.7576 82.6136 53.2273C84.3258 56.6818 85.1818 60.8182 85.1818 65.6364C85.1818 70.4848 84.3182 74.6591 82.5909 78.1591C80.8636 81.6439 78.3485 84.3258 75.0455 86.2045C71.7424 88.0682 67.7273 89 63 89ZM54.2727 84H62.6364C66.4848 84 69.6742 83.2576 72.2045 81.7727C74.7348 80.2879 76.6212 78.1742 77.8636 75.4318C79.1061 72.6894 79.7273 69.4242 79.7273 65.6364C79.7273 61.8788 79.1136 58.6439 77.8864 55.9318C76.6591 53.2045 74.8258 51.1136 72.3864 49.6591C69.947 48.1894 66.9091 47.4545 63.2727 47.4545H54.2727V84Z" fill="#005A1E"/>
<path d="M64.468 66.4246C64.468 66.7606 64.312 66.9886 64 67.1086L46.972 72.9766L43.984 74.0206L47.332 74.4166L63.388 76.3966C63.58 76.4206 63.736 76.5046 63.856 76.6486C63.952 76.7686 64 76.9246 64 77.1166V78.8086C64 79.0006 63.94 79.1566 63.82 79.2766C63.676 79.3726 63.52 79.4086 63.352 79.3846L39.376 76.2526C39.256 76.2286 39.16 76.1806 39.088 76.1086C39.016 76.0126 38.98 75.9166 38.98 75.8206V73.3006C38.98 73.1566 39.028 73.0126 39.124 72.8686C39.196 72.7246 39.304 72.6406 39.448 72.6166L58.204 66.1366L60.004 65.5246L58.096 64.8766L39.304 58.3606C39.088 58.2886 38.98 58.1446 38.98 57.9286V55.4446C38.98 55.2526 39.04 55.0966 39.16 54.9766C39.256 54.8326 39.4 54.7486 39.592 54.7246L63.352 51.6286C63.52 51.6046 63.676 51.6526 63.82 51.7726C63.94 51.8686 64 52.0126 64 52.2046V53.9326C64 54.1006 63.952 54.2566 63.856 54.4006C63.736 54.5206 63.58 54.6046 63.388 54.6526L47.188 56.6326L44.056 57.0286L47.512 58.2166L64 63.9406C64.312 64.0606 64.468 64.2886 64.468 64.6246V66.4246Z" fill="#00B3EF"/>
</svg>
